<svg width="83" height="15" viewBox="0 0 83 15" fill="none" xmlns="http://www.w3.org/2000/svg">
<rect x="1" y="1" width="81" height="13" fill="black"/>
<rect x="1" y="14" width="1" height="1" fill="black"/>
<rect x="1" width="1" height="1" fill="black"/>
<rect x="11" y="14" width="1" height="1" fill="black"/>
<rect x="11" width="1" height="1" fill="black"/>
<rect x="21" y="14" width="1" height="1" fill="black"/>
<rect x="21" width="1" height="1" fill="black"/>
<rect x="31" y="14" width="1" height="1" fill="black"/>
<rect x="31" width="1" height="1" fill="black"/>
<rect x="41" y="14" width="1" height="1" fill="black"/>
<rect x="41" width="1" height="1" fill="black"/>
<rect x="51" y="14" width="1" height="1" fill="black"/>
<rect x="51" width="1" height="1" fill="black"/>
<rect x="61" y="14" width="1" height="1" fill="black"/>
<rect x="61" width="1" height="1" fill="black"/>
<rect x="71" y="14" width="1" height="1" fill="black"/>
<rect x="71" width="1" height="1" fill="black"/>
<rect x="3" y="14" width="1" height="1" fill="black"/>
<rect x="3" width="1" height="1" fill="black"/>
<rect x="13" y="14" width="1" height="1" fill="black"/>
<rect x="13" width="1" height="1" fill="black"/>
<rect x="23" y="14" width="1" height="1" fill="black"/>
<rect x="23" width="1" height="1" fill="black"/>
<rect x="33" y="14" width="1" height="1" fill="black"/>
<rect x="33" width="1" height="1" fill="black"/>
<rect x="43" y="14" width="1" height="1" fill="black"/>
<rect x="43" width="1" height="1" fill="black"/>
<rect x="53" y="14" width="1" height="1" fill="black"/>
<rect x="53" width="1" height="1" fill="black"/>
<rect x="63" y="14" width="1" height="1" fill="black"/>
<rect x="63" width="1" height="1" fill="black"/>
<rect x="73" y="14" width="1" height="1" fill="black"/>
<rect x="73" width="1" height="1" fill="black"/>
<rect x="7" y="14" width="1" height="1" fill="black"/>
<rect x="7" width="1" height="1" fill="black"/>
<rect x="17" y="14" width="1" height="1" fill="black"/>
<rect x="17" width="1" height="1" fill="black"/>
<rect x="27" y="14" width="1" height="1" fill="black"/>
<rect x="27" width="1" height="1" fill="black"/>
<rect x="37" y="14" width="1" height="1" fill="black"/>
<rect x="37" width="1" height="1" fill="black"/>
<rect x="47" y="14" width="1" height="1" fill="black"/>
<rect x="47" width="1" height="1" fill="black"/>
<rect x="57" y="14" width="1" height="1" fill="black"/>
<rect x="57" width="1" height="1" fill="black"/>
<rect x="67" y="14" width="1" height="1" fill="black"/>
<rect x="67" width="1" height="1" fill="black"/>
<rect x="77" y="14" width="1" height="1" fill="black"/>
<rect x="77" width="1" height="1" fill="black"/>
<rect x="5" y="14" width="1" height="1" fill="black"/>
<rect x="5" width="1" height="1" fill="black"/>
<rect x="15" y="14" width="1" height="1" fill="black"/>
<rect x="15" width="1" height="1" fill="black"/>
<rect x="25" y="14" width="1" height="1" fill="black"/>
<rect x="25" width="1" height="1" fill="black"/>
<rect x="35" y="14" width="1" height="1" fill="black"/>
<rect x="35" width="1" height="1" fill="black"/>
<rect x="45" y="14" width="1" height="1" fill="black"/>
<rect x="45" width="1" height="1" fill="black"/>
<rect x="55" y="14" width="1" height="1" fill="black"/>
<rect x="55" width="1" height="1" fill="black"/>
<rect x="65" y="14" width="1" height="1" fill="black"/>
<rect x="65" width="1" height="1" fill="black"/>
<rect x="75" y="14" width="1" height="1" fill="black"/>
<rect x="75" width="1" height="1" fill="black"/>
<rect x="9" y="14" width="1" height="1" fill="black"/>
<rect x="9" width="1" height="1" fill="black"/>
<rect x="19" y="14" width="1" height="1" fill="black"/>
<rect x="19" width="1" height="1" fill="black"/>
<rect x="29" y="14" width="1" height="1" fill="black"/>
<rect x="29" width="1" height="1" fill="black"/>
<rect x="39" y="14" width="1" height="1" fill="black"/>
<rect x="39" width="1" height="1" fill="black"/>
<rect x="49" y="14" width="1" height="1" fill="black"/>
<rect x="49" width="1" height="1" fill="black"/>
<rect x="59" y="14" width="1" height="1" fill="black"/>
<rect x="59" width="1" height="1" fill="black"/>
<rect x="69" y="14" width="1" height="1" fill="black"/>
<rect x="69" width="1" height="1" fill="black"/>
<rect x="79" y="14" width="1" height="1" fill="black"/>
<rect x="79" width="1" height="1" fill="black"/>
<rect x="81" y="14" width="1" height="1" fill="black"/>
<rect x="81" width="1" height="1" fill="black"/>
<rect x="82" y="14" width="1" height="1" fill="black"/>
<rect x="82" y="13" width="1" height="1" fill="black"/>
<rect y="13" width="1" height="1" fill="black"/>
<rect x="82" y="11" width="1" height="1" fill="black"/>
<rect width="1" height="1" fill="black"/>
<rect y="14" width="1" height="1" fill="black"/>
<rect y="1" width="1" height="1" fill="black"/>
<rect y="3" width="1" height="1" fill="black"/>
<rect x="82" y="3" width="1" height="1" fill="black"/>
<rect x="82" y="1" width="1" height="1" fill="black"/>
<rect x="82" width="1" height="1" fill="black"/>
<rect y="5" width="1" height="1" fill="black"/>
<rect x="82" y="5" width="1" height="1" fill="black"/>
<rect y="7" width="1" height="1" fill="black"/>
<rect x="82" y="7" width="1" height="1" fill="black"/>
<rect y="9" width="1" height="1" fill="black"/>
<rect y="11" width="1" height="1" fill="black"/>
<rect x="82" y="9" width="1" height="1" fill="black"/>
</svg>
