<svg width="51" height="50" viewBox="0 0 51 50" fill="none" xmlns="http://www.w3.org/2000/svg">
<path fill-rule="evenodd" clip-rule="evenodd" d="M17.5312 4.78125H51V47.8125H49.4062V49.4062H19.125V47.8125H17.5312V4.78125Z" fill="#C4C4C4"/>
<rect x="14.3438" y="3.1875" width="30.2812" height="3.1875" fill="#8AB1D6"/>
<rect x="12.75" y="6.375" width="30.2812" height="3.1875" fill="#8AB1D6"/>
<rect x="11.1562" y="9.5625" width="30.2812" height="3.1875" fill="#8AB1D6"/>
<rect x="9.5625" y="12.75" width="30.2812" height="3.1875" fill="#8AB1D6"/>
<rect x="7.96875" y="15.9375" width="30.2812" height="3.1875" fill="#8AB1D6"/>
<rect x="6.375" y="19.125" width="30.2812" height="3.1875" fill="#8AB1D6"/>
<rect x="4.78125" y="22.3125" width="30.2812" height="3.1875" fill="#8AB1D6"/>
<rect x="1.59375" y="28.6875" width="30.2812" height="3.1875" fill="#8AB1D6"/>
<rect x="1.59375" y="31.875" width="27.0938" height="1.59375" fill="#8AB1D6"/>
<rect x="3.1875" y="25.5" width="30.2812" height="3.1875" fill="#8AB1D6"/>
<line x1="13.5469" y1="3.1875" x2="13.5469" y2="6.375" stroke="black" stroke-width="1.59375"/>
<line x1="11.9531" y1="6.375" x2="11.9531" y2="9.5625" stroke="black" stroke-width="1.59375"/>
<line x1="10.3594" y1="9.5625" x2="10.3594" y2="12.75" stroke="black" stroke-width="1.59375"/>
<line x1="8.76562" y1="12.75" x2="8.76562" y2="15.9375" stroke="black" stroke-width="1.59375"/>
<line x1="7.17188" y1="15.9375" x2="7.17188" y2="19.125" stroke="black" stroke-width="1.59375"/>
<line x1="5.57812" y1="19.125" x2="5.57812" y2="22.3125" stroke="black" stroke-width="1.59375"/>
<line x1="3.98438" y1="22.3125" x2="3.98438" y2="25.5" stroke="black" stroke-width="1.59375"/>
<line x1="2.39062" y1="25.5" x2="2.39062" y2="28.6875" stroke="black" stroke-width="1.59375"/>
<line x1="32.6719" y1="28.6875" x2="32.6719" y2="31.875" stroke="black" stroke-width="1.59375"/>
<line x1="34.2656" y1="25.5" x2="34.2656" y2="28.6875" stroke="black" stroke-width="1.59375"/>
<line x1="35.8594" y1="22.3125" x2="35.8594" y2="25.5" stroke="black" stroke-width="1.59375"/>
<line x1="37.4531" y1="19.125" x2="37.4531" y2="22.3125" stroke="black" stroke-width="1.59375"/>
<line x1="39.0469" y1="15.9375" x2="39.0469" y2="19.125" stroke="black" stroke-width="1.59375"/>
<line x1="40.6406" y1="12.75" x2="40.6406" y2="15.9375" stroke="black" stroke-width="1.59375"/>
<line x1="42.2344" y1="9.5625" x2="42.2344" y2="12.75" stroke="black" stroke-width="1.59375"/>
<line x1="43.8281" y1="6.375" x2="43.8281" y2="9.5625" stroke="black" stroke-width="1.59375"/>
<line x1="45.4219" y1="3.1875" x2="45.4219" y2="6.375" stroke="black" stroke-width="1.59375"/>
<line x1="47.0156" y1="3.1875" x2="47.0156" y2="44.625" stroke="black" stroke-width="1.59375"/>
<line x1="0.796875" y1="28.6875" x2="0.796875" y2="33.4688" stroke="black" stroke-width="1.59375"/>
<line x1="15.1406" y1="35.0625" x2="15.1406" y2="44.625" stroke="black" stroke-width="1.59375"/>
<line x1="31.875" y1="32.6719" x2="28.6875" y2="32.6719" stroke="black" stroke-width="1.59375"/>
<line x1="19.125" y1="0.796875" x2="15.9375" y2="0.796875" stroke="black" stroke-width="1.59375"/>
<line x1="20.7188" y1="2.39062" x2="17.5312" y2="2.39062" stroke="black" stroke-width="1.59375"/>
<line x1="23.9062" y1="0.796875" x2="20.7188" y2="0.796875" stroke="black" stroke-width="1.59375"/>
<line x1="25.5" y1="2.39062" x2="22.3125" y2="2.39062" stroke="black" stroke-width="1.59375"/>
<line x1="28.6875" y1="0.796875" x2="25.5" y2="0.796875" stroke="black" stroke-width="1.59375"/>
<line x1="30.2812" y1="2.39062" x2="27.0938" y2="2.39062" stroke="black" stroke-width="1.59375"/>
<line x1="33.4688" y1="0.796875" x2="30.2812" y2="0.796875" stroke="black" stroke-width="1.59375"/>
<line x1="35.0625" y1="2.39062" x2="31.875" y2="2.39062" stroke="black" stroke-width="1.59375"/>
<line x1="38.25" y1="0.796875" x2="35.0625" y2="0.796875" stroke="black" stroke-width="1.59375"/>
<line x1="39.8438" y1="2.39062" x2="36.6562" y2="2.39062" stroke="black" stroke-width="1.59375"/>
<line x1="43.0312" y1="0.796875" x2="39.8438" y2="0.796875" stroke="black" stroke-width="1.59375"/>
<line x1="47.8125" y1="2.39062" x2="41.4375" y2="2.39062" stroke="black" stroke-width="1.59375"/>
<line x1="28.6875" y1="34.2656" x2="1.59375" y2="34.2656" stroke="black" stroke-width="1.59375"/>
<line x1="31.875" y1="15.1406" x2="14.3438" y2="15.1406" stroke="black" stroke-width="1.59375"/>
<line x1="35.0625" y1="11.9531" x2="17.5312" y2="11.9531" stroke="black" stroke-width="1.59375"/>
<line x1="46.2188" y1="45.4219" x2="15.9375" y2="45.4219" stroke="black" stroke-width="1.59375"/>
<line x1="14.3438" y1="2.39062" x2="15.9375" y2="2.39062" stroke="black" stroke-width="1.59375"/>
<line x1="15.9375" y1="3.98438" x2="17.5312" y2="3.98438" stroke="black" stroke-width="1.59375"/>
<line x1="20.7188" y1="3.98438" x2="22.3125" y2="3.98438" stroke="black" stroke-width="1.59375"/>
<line x1="25.5" y1="3.98438" x2="27.0938" y2="3.98438" stroke="black" stroke-width="1.59375"/>
<line x1="30.2812" y1="3.98438" x2="31.875" y2="3.98438" stroke="black" stroke-width="1.59375"/>
<line x1="35.0625" y1="3.98438" x2="36.6562" y2="3.98438" stroke="black" stroke-width="1.59375"/>
<line x1="39.8438" y1="3.98438" x2="41.4375" y2="3.98438" stroke="black" stroke-width="1.59375"/>
<line x1="46.2188" y1="16.7344" x2="39.8438" y2="16.7344" stroke="#AAAAAA" stroke-width="1.59375"/>
<line x1="46.2188" y1="21.5156" x2="38.25" y2="21.5156" stroke="#AAAAAA" stroke-width="1.59375"/>
<line x1="46.2188" y1="26.2969" x2="35.0625" y2="26.2969" stroke="#AAAAAA" stroke-width="1.59375"/>
<line x1="46.2188" y1="31.0781" x2="33.4688" y2="31.0781" stroke="#AAAAAA" stroke-width="1.59375"/>
<line x1="46.2188" y1="35.8594" x2="15.9375" y2="35.8594" stroke="#AAAAAA" stroke-width="1.59375"/>
<line x1="46.2188" y1="40.6406" x2="15.9375" y2="40.6406" stroke="#AAAAAA" stroke-width="1.59375"/>
<rect x="35.0625" y="27.0938" width="11.1562" height="3.1875" fill="white"/>
<rect x="36.6562" y="22.3125" width="9.5625" height="3.1875" fill="white"/>
<rect x="39.8438" y="17.5312" width="6.375" height="3.1875" fill="white"/>
<rect x="38.25" y="19.125" width="1.59375" height="1.59375" fill="white"/>
<rect x="33.4688" y="28.6875" width="1.59375" height="1.59375" fill="white"/>
<rect x="28.6875" y="33.4688" width="3.1875" height="1.59375" fill="white"/>
<rect x="41.4375" y="12.75" width="4.78125" height="3.1875" fill="white"/>
<rect x="43.0312" y="9.5625" width="3.1875" height="3.1875" fill="white"/>
<rect x="44.625" y="6.375" width="1.59375" height="3.1875" fill="white"/>
<rect x="31.875" y="31.875" width="14.3438" height="3.1875" fill="white"/>
<rect x="15.9375" y="36.6562" width="30.2812" height="3.1875" fill="white"/>
<rect x="15.9375" y="41.4375" width="30.2812" height="3.1875" fill="white"/>
</svg>
