<svg width="41" height="49" viewBox="0 0 41 49" fill="none" xmlns="http://www.w3.org/2000/svg">
<line x1="1.35294" x2="1.35294" y2="46" stroke="#323232" stroke-width="2.70588"/>
<line x1="27.0588" y1="1.35294" x2="-3.8147e-06" y2="1.35294" stroke="#323232" stroke-width="2.70588"/>
<line x1="28.4118" y1="2.70589" x2="28.4118" y2="4.52995e-06" stroke="#323232" stroke-width="2.70588"/>
<line x1="31.1176" y1="5.41174" x2="31.1176" y2="2.70586" stroke="#323232" stroke-width="2.70588"/>
<line x1="33.8235" y1="8.11765" x2="33.8235" y2="5.41176" stroke="#323232" stroke-width="2.70588"/>
<line x1="36.5294" y1="10.8235" x2="36.5294" y2="8.11765" stroke="#323232" stroke-width="2.70588"/>
<line x1="39.2353" y1="10.8235" x2="39.2353" y2="16.2353" stroke="#323232" stroke-width="2.70588"/>
<line x1="40.5882" y1="47.3529" x2="1.14441e-05" y2="47.3529" stroke="#323232" stroke-width="2.70588"/>
<line x1="39.2353" y1="46" x2="39.2353" y2="16.2353" stroke="#323232" stroke-width="2.70588"/>
<line x1="28.4118" y1="2.70589" x2="28.4118" y2="13.5294" stroke="#323232" stroke-width="2.70588"/>
<line x1="27.0588" y1="14.8823" x2="40.5882" y2="14.8823" stroke="#323232" stroke-width="2.70588"/>
<rect x="2.70589" y="2.70589" width="24.3529" height="43.2941" fill="white"/>
<rect x="27.0588" y="16.2353" width="10.8235" height="29.7647" fill="white"/>
<line x1="31.1177" y1="5.41174" x2="31.1177" y2="13.5294" stroke="white" stroke-width="2.70588"/>
<line x1="33.8235" y1="8.11765" x2="33.8235" y2="13.5294" stroke="white" stroke-width="2.70588"/>
<line x1="36.5294" y1="10.8235" x2="36.5294" y2="13.5294" stroke="white" stroke-width="2.70588"/>
<line x1="9.5" y1="35" x2="9.5" y2="21" stroke="#323232"/>
<line x1="30.5" y1="35" x2="30.5" y2="21" stroke="#323232"/>
<line x1="31" y1="35.5" x2="9" y2="35.5" stroke="#323232"/>
<line x1="31" y1="20.5" x2="9" y2="20.5" stroke="#323232"/>
<line x1="10" y1="34.5" x2="11" y2="34.5" stroke="#323232"/>
<line x1="11" y1="33.5" x2="12" y2="33.5" stroke="#323232"/>
<line x1="13" y1="33.5" x2="14" y2="33.5" stroke="#00FF00"/>
<line x1="14" y1="32.5" x2="15" y2="32.5" stroke="#00FF00"/>
<line x1="15" y1="31.5" x2="16" y2="31.5" stroke="#00FF00"/>
<line x1="16" y1="30.5" x2="17" y2="30.5" stroke="#00FF00"/>
<line x1="17" y1="29.5" x2="18" y2="29.5" stroke="#00FF00"/>
<line x1="17" y1="28.5" x2="18" y2="28.5" stroke="#097814"/>
<line x1="23" y1="24.5" x2="24" y2="24.5" stroke="#FFF61A"/>
<line x1="22" y1="24.5" x2="23" y2="24.5" stroke="#FFBF1A"/>
<line x1="23" y1="23.5" x2="24" y2="23.5" stroke="#FFBF1A"/>
<line x1="24" y1="24.5" x2="25" y2="24.5" stroke="#FFBF1A"/>
<line x1="23" y1="25.5" x2="24" y2="25.5" stroke="#FFBF1A"/>
<line x1="16" y1="29.5" x2="17" y2="29.5" stroke="#097814"/>
<line x1="18" y1="29.5" x2="19" y2="29.5" stroke="#097814"/>
<line x1="17" y1="30.5" x2="18" y2="30.5" stroke="#097814"/>
<line x1="15" y1="30.5" x2="16" y2="30.5" stroke="#097814"/>
<line x1="20" y1="30.5" x2="21" y2="30.5" stroke="#097814"/>
<line x1="19" y1="30.5" x2="20" y2="30.5" stroke="#097814"/>
<line x1="20" y1="31.5" x2="21" y2="31.5" stroke="#097814"/>
<line x1="18" y1="31.5" x2="19" y2="31.5" stroke="#097814"/>
<line x1="16" y1="31.5" x2="17" y2="31.5" stroke="#097814"/>
<line x1="14" y1="31.5" x2="15" y2="31.5" stroke="#097814"/>
<line x1="10" y1="33.5" x2="11" y2="33.5" stroke="#8AB1D6"/>
<line x1="10" y1="31.5" x2="11" y2="31.5" stroke="#8AB1D6"/>
<line x1="10" y1="29.5" x2="11" y2="29.5" stroke="#8AB1D6"/>
<line x1="10" y1="27.5" x2="11" y2="27.5" stroke="#8AB1D6"/>
<line x1="10" y1="25.5" x2="11" y2="25.5" stroke="#8AB1D6"/>
<line x1="11" y1="32.5" x2="12" y2="32.5" stroke="#8AB1D6"/>
<line x1="11" y1="30.5" x2="12" y2="30.5" stroke="#8AB1D6"/>
<line x1="11" y1="28.5" x2="12" y2="28.5" stroke="#8AB1D6"/>
<line x1="11" y1="26.5" x2="12" y2="26.5" stroke="#8AB1D6"/>
<line x1="11" y1="24.5" x2="12" y2="24.5" stroke="#8AB1D6"/>
<line x1="12" y1="31.5" x2="13" y2="31.5" stroke="#8AB1D6"/>
<line x1="12" y1="29.5" x2="13" y2="29.5" stroke="#8AB1D6"/>
<line x1="12" y1="27.5" x2="13" y2="27.5" stroke="#8AB1D6"/>
<line x1="12" y1="25.5" x2="13" y2="25.5" stroke="#8AB1D6"/>
<line x1="12" y1="23.5" x2="13" y2="23.5" stroke="#8AB1D6"/>
<line x1="11" y1="22.5" x2="12" y2="22.5" stroke="#8AB1D6"/>
<line x1="10" y1="23.5" x2="11" y2="23.5" stroke="#8AB1D6"/>
<line x1="10" y1="21.5" x2="11" y2="21.5" stroke="#8AB1D6"/>
<line x1="13" y1="30.5" x2="14" y2="30.5" stroke="#8AB1D6"/>
<line x1="13" y1="30.5" x2="14" y2="30.5" stroke="#8AB1D6"/>
<line x1="13" y1="28.5" x2="14" y2="28.5" stroke="#8AB1D6"/>
<line x1="13" y1="26.5" x2="14" y2="26.5" stroke="#8AB1D6"/>
<line x1="13" y1="24.5" x2="14" y2="24.5" stroke="#8AB1D6"/>
<line x1="13" y1="22.5" x2="14" y2="22.5" stroke="#8AB1D6"/>
<line x1="12" y1="21.5" x2="13" y2="21.5" stroke="#8AB1D6"/>
<line x1="14" y1="29.5" x2="15" y2="29.5" stroke="#8AB1D6"/>
<line x1="14" y1="27.5" x2="15" y2="27.5" stroke="#8AB1D6"/>
<line x1="14" y1="25.5" x2="15" y2="25.5" stroke="#8AB1D6"/>
<line x1="14" y1="23.5" x2="15" y2="23.5" stroke="#8AB1D6"/>
<line x1="14" y1="21.5" x2="15" y2="21.5" stroke="#8AB1D6"/>
<line x1="15" y1="28.5" x2="16" y2="28.5" stroke="#8AB1D6"/>
<line x1="15" y1="26.5" x2="16" y2="26.5" stroke="#8AB1D6"/>
<line x1="15" y1="24.5" x2="16" y2="24.5" stroke="#8AB1D6"/>
<line x1="15" y1="22.5" x2="16" y2="22.5" stroke="#8AB1D6"/>
<line x1="16" y1="27.5" x2="17" y2="27.5" stroke="#8AB1D6"/>
<line x1="16" y1="25.5" x2="17" y2="25.5" stroke="#8AB1D6"/>
<line x1="16" y1="23.5" x2="17" y2="23.5" stroke="#8AB1D6"/>
<line x1="16" y1="21.5" x2="17" y2="21.5" stroke="#8AB1D6"/>
<line x1="17" y1="26.5" x2="18" y2="26.5" stroke="#8AB1D6"/>
<line x1="17" y1="24.5" x2="18" y2="24.5" stroke="#8AB1D6"/>
<line x1="18" y1="23.5" x2="19" y2="23.5" stroke="#8AB1D6"/>
<line x1="18" y1="21.5" x2="19" y2="21.5" stroke="#8AB1D6"/>
<line x1="19" y1="22.5" x2="20" y2="22.5" stroke="#8AB1D6"/>
<line x1="19" y1="24.5" x2="20" y2="24.5" stroke="#8AB1D6"/>
<line x1="20" y1="23.5" x2="21" y2="23.5" stroke="#8AB1D6"/>
<line x1="20" y1="21.5" x2="21" y2="21.5" stroke="#8AB1D6"/>
<line x1="21" y1="22.5" x2="22" y2="22.5" stroke="#8AB1D6"/>
<line x1="22" y1="21.5" x2="23" y2="21.5" stroke="#8AB1D6"/>
<line x1="24" y1="21.5" x2="25" y2="21.5" stroke="#8AB1D6"/>
<line x1="25" y1="22.5" x2="26" y2="22.5" stroke="#8AB1D6"/>
<line x1="26" y1="23.5" x2="27" y2="23.5" stroke="#8AB1D6"/>
<line x1="27" y1="24.5" x2="28" y2="24.5" stroke="#8AB1D6"/>
<line x1="26" y1="25.5" x2="27" y2="25.5" stroke="#8AB1D6"/>
<line x1="25" y1="26.5" x2="26" y2="26.5" stroke="#8AB1D6"/>
<line x1="25" y1="28.5" x2="26" y2="28.5" stroke="#8AB1D6"/>
<line x1="25" y1="30.5" x2="26" y2="30.5" stroke="#8AB1D6"/>
<line x1="24" y1="31.5" x2="25" y2="31.5" stroke="#8AB1D6"/>
<line x1="25" y1="32.5" x2="26" y2="32.5" stroke="#8AB1D6"/>
<line x1="26" y1="33.5" x2="27" y2="33.5" stroke="#8AB1D6"/>
<line x1="26" y1="31.5" x2="27" y2="31.5" stroke="#8AB1D6"/>
<line x1="26" y1="29.5" x2="27" y2="29.5" stroke="#8AB1D6"/>
<line x1="26" y1="27.5" x2="27" y2="27.5" stroke="#8AB1D6"/>
<line x1="27" y1="26.5" x2="28" y2="26.5" stroke="#8AB1D6"/>
<line x1="28" y1="25.5" x2="29" y2="25.5" stroke="#8AB1D6"/>
<line x1="29" y1="24.5" x2="30" y2="24.5" stroke="#8AB1D6"/>
<line x1="29" y1="26.5" x2="30" y2="26.5" stroke="#8AB1D6"/>
<line x1="28" y1="27.5" x2="29" y2="27.5" stroke="#8AB1D6"/>
<line x1="27" y1="28.5" x2="28" y2="28.5" stroke="#8AB1D6"/>
<line x1="28" y1="29.5" x2="29" y2="29.5" stroke="#8AB1D6"/>
<line x1="27" y1="30.5" x2="28" y2="30.5" stroke="#8AB1D6"/>
<line x1="29" y1="30.5" x2="30" y2="30.5" stroke="#8AB1D6"/>
<line x1="28" y1="31.5" x2="29" y2="31.5" stroke="#8AB1D6"/>
<line x1="27" y1="32.5" x2="28" y2="32.5" stroke="#8AB1D6"/>
<line x1="28" y1="33.5" x2="29" y2="33.5" stroke="#8AB1D6"/>
<line x1="27" y1="34.5" x2="28" y2="34.5" stroke="#8AB1D6"/>
<line x1="29" y1="34.5" x2="30" y2="34.5" stroke="#8AB1D6"/>
<line x1="29" y1="32.5" x2="30" y2="32.5" stroke="#8AB1D6"/>
<line x1="29" y1="28.5" x2="30" y2="28.5" stroke="#8AB1D6"/>
<line x1="28" y1="23.5" x2="29" y2="23.5" stroke="#8AB1D6"/>
<line x1="27" y1="22.5" x2="28" y2="22.5" stroke="#8AB1D6"/>
<line x1="26" y1="21.5" x2="27" y2="21.5" stroke="#8AB1D6"/>
<line x1="28" y1="21.5" x2="29" y2="21.5" stroke="#8AB1D6"/>
<line x1="29" y1="22.5" x2="30" y2="22.5" stroke="#8AB1D6"/>
<line x1="17" y1="22.5" x2="18" y2="22.5" stroke="#8AB1D6"/>
<line x1="14" y1="21.5" x2="15" y2="21.5" stroke="#8AB1D6"/>
<line x1="18" y1="25.5" x2="19" y2="25.5" stroke="#8AB1D6"/>
<line x1="18" y1="27.5" x2="19" y2="27.5" stroke="#8AB1D6"/>
<line x1="19" y1="26.5" x2="20" y2="26.5" stroke="#8AB1D6"/>
<line x1="20" y1="25.5" x2="21" y2="25.5" stroke="#8AB1D6"/>
<line x1="20" y1="27.5" x2="21" y2="27.5" stroke="#8AB1D6"/>
<line x1="21" y1="28.5" x2="22" y2="28.5" stroke="#8AB1D6"/>
<line x1="22" y1="27.5" x2="23" y2="27.5" stroke="#8AB1D6"/>
<line x1="22" y1="29.5" x2="23" y2="29.5" stroke="#8AB1D6"/>
<line x1="23" y1="30.5" x2="24" y2="30.5" stroke="#8AB1D6"/>
<line x1="24" y1="29.5" x2="25" y2="29.5" stroke="#8AB1D6"/>
<line x1="23" y1="28.5" x2="24" y2="28.5" stroke="#8AB1D6"/>
<line x1="24" y1="27.5" x2="25" y2="27.5" stroke="#8AB1D6"/>
<line x1="21" y1="26.5" x2="22" y2="26.5" stroke="#8AB1D6"/>
<line x1="19" y1="28.5" x2="20" y2="28.5" stroke="#8AB1D6"/>
<line x1="20" y1="29.5" x2="21" y2="29.5" stroke="#8AB1D6"/>
<line x1="21" y1="30.5" x2="22" y2="30.5" stroke="#8AB1D6"/>
<line x1="22" y1="31.5" x2="23" y2="31.5" stroke="#8AB1D6"/>
<line x1="23" y1="32.5" x2="24" y2="32.5" stroke="#8AB1D6"/>
<line x1="24" y1="33.5" x2="25" y2="33.5" stroke="#8AB1D6"/>
<line x1="25" y1="34.5" x2="26" y2="34.5" stroke="#8AB1D6"/>
<line x1="13" y1="32.5" x2="14" y2="32.5" stroke="#097814"/>
<line x1="15" y1="32.5" x2="16" y2="32.5" stroke="#097814"/>
<line x1="17" y1="32.5" x2="18" y2="32.5" stroke="#097814"/>
<line x1="19" y1="32.5" x2="20" y2="32.5" stroke="#097814"/>
<line x1="21" y1="32.5" x2="22" y2="32.5" stroke="#097814"/>
<line x1="22" y1="33.5" x2="23" y2="33.5" stroke="#097814"/>
<line x1="20" y1="33.5" x2="21" y2="33.5" stroke="#097814"/>
<line x1="18" y1="33.5" x2="19" y2="33.5" stroke="#097814"/>
<line x1="16" y1="33.5" x2="17" y2="33.5" stroke="#097814"/>
<line x1="14" y1="33.5" x2="15" y2="33.5" stroke="#097814"/>
<line x1="12" y1="33.5" x2="13" y2="33.5" stroke="#097814"/>
<line x1="11" y1="34.5" x2="12" y2="34.5" stroke="#097814"/>
<line x1="13" y1="34.5" x2="14" y2="34.5" stroke="#097814"/>
<line x1="15" y1="34.5" x2="16" y2="34.5" stroke="#097814"/>
<line x1="17" y1="34.5" x2="18" y2="34.5" stroke="#097814"/>
<line x1="19" y1="34.5" x2="20" y2="34.5" stroke="#097814"/>
<line x1="21" y1="34.5" x2="22" y2="34.5" stroke="#097814"/>
<line x1="23" y1="34.5" x2="24" y2="34.5" stroke="#097814"/>
<line x1="18" y1="30.5" x2="19" y2="30.5" stroke="#00FF00"/>
<line x1="19" y1="31.5" x2="20" y2="31.5" stroke="#00FF00"/>
<line x1="20" y1="32.5" x2="21" y2="32.5" stroke="#00FF00"/>
<line x1="21" y1="33.5" x2="22" y2="33.5" stroke="#00FF00"/>
<line x1="22" y1="34.5" x2="23" y2="34.5" stroke="#00FF00"/>
<line x1="20" y1="34.5" x2="21" y2="34.5" stroke="#00FF00"/>
<line x1="19" y1="33.5" x2="20" y2="33.5" stroke="#00FF00"/>
<line x1="18" y1="32.5" x2="19" y2="32.5" stroke="#00FF00"/>
<line x1="17" y1="31.5" x2="18" y2="31.5" stroke="#00FF00"/>
<line x1="16" y1="32.5" x2="17" y2="32.5" stroke="#00FF00"/>
<line x1="15" y1="33.5" x2="16" y2="33.5" stroke="#00FF00"/>
<line x1="14" y1="34.5" x2="15" y2="34.5" stroke="#00FF00"/>
<line x1="16" y1="34.5" x2="17" y2="34.5" stroke="#00FF00"/>
<line x1="18" y1="34.5" x2="19" y2="34.5" stroke="#00FF00"/>
<line x1="17" y1="33.5" x2="18" y2="33.5" stroke="#00FF00"/>
<line x1="12" y1="34.5" x2="13" y2="34.5" stroke="#00FF00"/>
<line x1="12" y1="32.5" x2="13" y2="32.5" stroke="#323232"/>
<line x1="13" y1="31.5" x2="14" y2="31.5" stroke="#323232"/>
<line x1="14" y1="30.5" x2="15" y2="30.5" stroke="#323232"/>
<line x1="15" y1="29.5" x2="16" y2="29.5" stroke="#323232"/>
<line x1="16" y1="28.5" x2="17" y2="28.5" stroke="#323232"/>
<line x1="17" y1="27.5" x2="18" y2="27.5" stroke="#323232"/>
<line x1="18" y1="28.5" x2="19" y2="28.5" stroke="#323232"/>
<line x1="19" y1="29.5" x2="20" y2="29.5" stroke="#323232"/>
<line x1="20" y1="30.5" x2="21" y2="30.5" stroke="#323232"/>
<line x1="21" y1="31.5" x2="22" y2="31.5" stroke="#323232"/>
<line x1="22" y1="32.5" x2="23" y2="32.5" stroke="#323232"/>
<line x1="23" y1="33.5" x2="24" y2="33.5" stroke="#323232"/>
<line x1="24" y1="34.5" x2="25" y2="34.5" stroke="#323232"/>
<line x1="23" y1="22.5" x2="24" y2="22.5" stroke="#323232"/>
<line x1="22" y1="23.5" x2="23" y2="23.5" stroke="#323232"/>
<line x1="21" y1="24.5" x2="22" y2="24.5" stroke="#323232"/>
<line x1="22" y1="25.5" x2="23" y2="25.5" stroke="#323232"/>
<line x1="23" y1="26.5" x2="24" y2="26.5" stroke="#323232"/>
<line x1="24" y1="25.5" x2="25" y2="25.5" stroke="#323232"/>
<line x1="25" y1="24.5" x2="26" y2="24.5" stroke="#323232"/>
<line x1="24" y1="23.5" x2="25" y2="23.5" stroke="#323232"/>
<line x1="9.5" y1="20" x2="9.5" y2="21" stroke="white"/>
<line x1="30.5" y1="20" x2="30.5" y2="21" stroke="white"/>
<line x1="30.5" y1="35" x2="30.5" y2="36" stroke="white"/>
<line x1="9.5" y1="35" x2="9.5" y2="36" stroke="white"/>
</svg>
